# xmcd CD database file
#
# Track frame offsets:
#	187
#	16887
#	34202
#	48242
#	67965
#	80325
#	102527
#	123405
#	152520
#
# Disc length: 2232 seconds
#
# Revision: 0
# Processed by: cddbd v1.4PL0 Copyright (c) Steve Scherf et al.
# Submitted via: CDex 1.51
#
DISCID=6808b609
DTITLE=Sonny Stitt - Stitt Plays Bird
DYEAR=1900
DGENRE=Jazz
TTITLE0=Ornithology
TTITLE1=Scrapple From the Apple
TTITLE2=My Little Suede Shoes
TTITLE3=Parker's Mood
TTITLE4=Au Privave
TTITLE5=Ko-Ko
TTITLE6=Confirmation
TTITLE7=Hootie Blues
TTITLE8=Constellation
EXTD=
EXTT0=
EXTT1=
EXTT2=
EXTT3=
EXTT4=
EXTT5=
EXTT6=
EXTT7=
EXTT8=
PLAYORDER=
